<svg width="73" height="77" viewBox="0 0 73 77" fill="none" xmlns="http://www.w3.org/2000/svg">
<path fill-rule="evenodd" clip-rule="evenodd" d="M35.4733 1.20825C53.953 1.20825 68.9337 16.2988 68.9337 34.914C68.9337 53.5292 53.953 68.6198 35.4733 68.6198C16.9937 68.6198 2.01294 53.5292 2.01294 34.914C2.01294 16.2988 16.9937 1.20825 35.4733 1.20825V1.20825Z" fill="#FEFEFE"/>
<path fill-rule="evenodd" clip-rule="evenodd" d="M35.4734 0.238525C54.4814 0.238525 69.8962 15.7667 69.8962 34.9139C69.8962 54.0616 54.4814 69.5896 35.4734 69.5896C16.4654 69.5896 1.05029 54.0616 1.05029 34.9139C1.05029 15.7667 16.4654 0.238525 35.4734 0.238525V0.238525ZM35.4734 1.63521C53.7156 1.63521 68.5097 16.5381 68.5097 34.9139C68.5097 53.2902 53.7156 68.1928 35.4734 68.1928C17.2312 68.1928 2.43684 53.2902 2.43684 34.9139C2.43684 16.5381 17.2312 1.63521 35.4734 1.63521V1.63521Z" fill="#2B2A29"/>
<path fill-rule="evenodd" clip-rule="evenodd" d="M45.391 51.0034C44.2205 51.5086 43.0448 51.198 42.0022 50.615C40.6066 49.8346 39.977 48.3458 39.8906 46.828C40.2453 46.946 40.6139 47.012 40.968 47.0104C41.687 47.007 42.3571 46.7494 42.8221 46.1403L42.9136 46.0204L42.9714 45.8739C43.1586 45.3992 43.1397 44.9496 42.9832 44.5503L42.9817 44.5509C42.8212 44.1437 42.5234 43.8172 42.1694 43.5946C42.0987 43.5425 42.0382 43.4887 41.9872 43.434C41.8716 43.3098 41.8224 43.1831 41.8252 43.062C41.8294 42.8821 41.9169 42.6731 42.0644 42.4573C42.163 42.3131 42.2885 42.1693 42.4356 42.0302C42.6444 41.833 42.9046 41.6418 43.213 41.4798C45.2326 40.7134 47.7093 40.8756 49.714 42.5648C50.7931 43.4741 51.1172 44.688 51.0423 46.0783C50.814 48.27 48.3911 49.5968 46.3452 48.7811C45.8555 48.5857 44.8858 47.964 44.3807 48.2488C44.1132 48.3994 43.996 48.8436 44.1921 49.1193C44.4931 49.5423 44.923 49.6117 45.3365 49.8782C45.9739 50.2887 46.0149 50.734 45.391 51.0034V51.0034ZM45.4634 45.5737C44.9541 45.7231 44.4673 46.4978 45.1019 46.6057C46.4246 46.8305 46.0974 47.0345 46.6428 47.123C47.4478 47.2535 47.6424 46.4481 47.1227 45.9089C46.7964 45.5705 46.0724 45.3952 45.4634 45.5737Z" fill="#2B2A29"/>
<path fill-rule="evenodd" clip-rule="evenodd" d="M28.1196 27.2744C27.9978 29.8199 28.1696 32.1006 29.4955 33.872C30.2767 34.9158 32.5496 34.0824 32.6703 32.4261C32.9211 30.2348 32.832 28.9164 33.3364 26.8371C33.895 24.534 32.6051 23.9015 31.3679 23.5036C30.1052 23.0975 28.266 24.2209 28.1196 27.2744V27.2744ZM31.0013 16.3584C32.4303 16.3868 33.5663 17.5771 33.5382 19.0166C33.5101 20.4561 32.3284 21.6005 30.8994 21.5722C29.4704 21.5438 28.3344 20.3535 28.3625 18.914C28.3906 17.4745 29.5723 16.3301 31.0013 16.3584V16.3584Z" fill="#2B2A29"/>
<path fill-rule="evenodd" clip-rule="evenodd" d="M21.2603 21.3551C21.6199 19.2513 21.9413 18.1975 24.1309 17.9016C26.2937 17.8982 26.8997 19.3143 27.1719 21.2236C27.3684 23.6677 27.2683 26.1685 26.7727 28.5556C26.2675 30.8563 25.5296 33.1141 24.3082 35.1633C23.3708 36.6163 22.1939 37.626 20.4175 37.829C18.3808 37.957 16.2902 37.0893 14.5587 36.0945L14.393 35.9959L14.2298 35.8961L14.0699 35.795L13.9135 35.6931L13.7608 35.5902L13.6117 35.4867L13.4687 35.3838L13.0635 35.0728C11.6149 33.8409 10.6052 32.4299 10.2142 30.5618C9.95908 28.8371 10.5266 27.3936 11.7055 26.0271C13.0679 24.4477 16.2048 23.3961 17.5074 25.1882C18.2774 26.2982 18.7972 30.4476 20.3777 30.4048C21.6862 30.1027 21.4599 27.4124 21.4406 26.453C21.3894 24.7491 21.0281 23.0653 21.2603 21.3551V21.3551Z" fill="#2B2A29"/>
<path fill-rule="evenodd" clip-rule="evenodd" d="M36.3753 19.5446C36.7538 18.6228 36.5765 17.7327 37.2889 16.9406C38.1269 16.0088 39.369 15.5304 40.7082 15.9095C42.0373 16.4452 42.259 17.2335 41.6123 18.4923C41.2966 19.1066 41.0326 19.7805 40.7938 20.5333C40.517 21.4053 40.748 21.936 41.8151 22.235C44.1673 22.9805 43.2505 25.7135 40.8656 25.61C39.8717 25.5668 39.5743 26.2452 39.4541 27.0247C39.2429 28.3961 39.2464 29.9046 39.3228 30.905C39.4664 32.783 39.2489 33.6057 37.8586 33.844C35.126 34.3126 33.9808 32.0812 33.9525 30.0438C33.9349 28.7725 34.3265 27.1255 34.8001 25.5943C35.1 24.6244 34.2194 24.0069 33.6004 23.6165C32.6568 23.0215 32.9314 20.9543 34.7846 20.8844C35.5707 20.8549 35.9163 20.6616 36.3753 19.5446Z" fill="#2B2A29"/>
<path fill-rule="evenodd" clip-rule="evenodd" d="M46.238 30.6297L46.3928 30.6916L46.5322 30.7555L46.6703 30.8263L46.8061 30.9017L46.938 30.9795L47.066 31.0577L47.1887 31.1348L47.3055 31.2085L47.4156 31.2769L47.5196 31.3386L47.6174 31.3918L47.712 31.4345L47.8085 31.4649L47.9249 31.4742L48.0743 31.4197L48.1907 31.2601L48.2198 31.0889L48.2081 30.9504L48.1776 30.8229L48.1339 30.6938L48.0766 30.5591L48.0072 30.4196L47.9262 30.2762L47.8341 30.1311L47.7315 29.9868L47.6192 29.8455L47.4975 29.7102L47.3673 29.5832L47.2283 29.4677L47.0815 29.3666L46.9262 29.2833L46.7561 29.2189L46.4613 29.1825L46.1825 29.2439L45.9427 29.3942L45.7632 29.6292L45.6862 29.9351L45.756 30.2406L45.9528 30.476L46.238 30.6297V30.6297ZM43.923 22.2423L43.9466 22.1686L43.982 22.0735L44.0223 21.9792L44.0677 21.8851L44.1175 21.792L44.1722 21.6999L44.2317 21.6086L44.2963 21.5179L44.3651 21.4283L44.4387 21.3396L44.5167 21.2525L44.5994 21.1663L44.6861 21.0817L44.7777 20.9983L44.873 20.9165L44.9703 20.8384L45.2692 20.6237L45.594 20.4255L45.9446 20.2438L46.3192 20.0796L46.7151 19.9346L47.1304 19.8095L47.5621 19.7059L48.0086 19.6246L48.4668 19.5669L48.9351 19.5338L49.4109 19.5261L49.8923 19.5449L50.3764 19.5915L50.8616 19.6664L51.3451 19.7708L51.8253 19.9056L52.2991 20.0718L52.7652 20.2702L53.221 20.5018L53.6647 20.7673L54.0935 21.0676L54.5061 21.4041L54.8999 21.7774L55.2732 22.1883L55.6236 22.6383L55.9495 23.1283L56.2485 23.6595L56.5188 24.2328L56.758 24.8497L56.9641 25.5112L57.1349 26.2191L57.2691 26.9764L57.3012 27.2148L57.3294 27.457L57.353 27.7001L57.3724 27.9434L57.3868 28.1878L57.3972 28.4327L57.4031 28.6783L57.4048 28.924L57.4018 29.1703L57.3947 29.4171L57.3834 29.6639L57.3682 29.9111L57.3486 30.1584L57.3252 30.4054L57.2975 30.6528L57.2664 30.8996L57.2308 31.1465L57.1915 31.3932L57.1482 31.6395L57.1015 31.8852L57.0508 32.1307L56.9965 32.3756L56.9384 32.6198L56.877 32.863L56.8118 33.1057L56.7432 33.3474L56.671 33.5884L56.5956 33.8281L56.5167 34.0668L56.4346 34.3044L56.349 34.5407L56.261 34.7748L56.1678 35.0084L56.0734 35.231L55.9767 35.4439L55.8784 35.6468L55.7778 35.8398L55.6757 36.0233L55.5716 36.1971L55.466 36.3615L55.3585 36.5163L55.2496 36.6619L55.1387 36.7985L55.0266 36.926L54.9129 37.0447L54.7977 37.1544L54.6807 37.2558L54.5626 37.3485L54.4423 37.4333L54.3205 37.5098L54.1969 37.5785L54.0717 37.6392L53.9444 37.6924L53.8152 37.7378L53.6838 37.7757L53.5506 37.806L53.4148 37.8291L53.277 37.8445L53.1366 37.8525L52.9942 37.8531L52.8493 37.8464L52.7022 37.8321L52.5528 37.8109L52.4012 37.7816L52.238 37.7433L52.0785 37.6985L51.9219 37.6476L51.7684 37.591L51.6172 37.529L51.4687 37.4617L51.3224 37.3898L51.178 37.313L51.0351 37.2321L50.894 37.1475L50.7543 37.0593L50.6161 36.9676L50.4784 36.873L50.3418 36.7758L50.2058 36.6764L50.0702 36.575L49.9344 36.472L49.799 36.3676C48.3756 35.2684 46.3927 34.7115 44.6658 34.3243C43.1669 33.9956 41.2444 33.7992 40.4854 31.4733C39.9703 28.9748 41.0163 27.5716 41.9354 26.7024C42.6401 26.0359 43.8304 25.4795 45.0744 25.7386C46.4256 26.0199 47.0229 27.2788 48.1007 27.9964C48.8013 28.3296 49.2725 27.8933 49.7703 27.2366L49.8532 27.0418L49.9106 26.868L49.9518 26.6925L49.9769 26.516L49.9856 26.3404L49.9789 26.167L49.9564 25.9964L49.919 25.829L49.8669 25.6665L49.8012 25.509L49.7221 25.357L49.6305 25.2103L49.5261 25.0697L49.4102 24.9353L49.2826 24.8073L49.1436 24.6856L48.9933 24.5707L48.8323 24.463L48.6607 24.3626L48.4789 24.2695L48.2864 24.1846L48.0841 24.1078L47.8717 24.0395L47.65 23.98L47.4182 23.9299L47.1775 23.8894L46.9276 23.8588L46.6687 23.8383L46.401 23.8287L46.1247 23.8303L45.84 23.8434L45.5544 23.8675L45.3536 23.8771L45.1683 23.8645L44.9917 23.8317L44.8252 23.7797L44.6689 23.7105L44.525 23.6251L44.3936 23.5256L44.2763 23.4127L44.1733 23.2888L44.0861 23.1552L44.0151 23.0136L43.9611 22.8655L43.9243 22.7121L43.9057 22.5549L43.9055 22.394L43.923 22.2423V22.2423Z" fill="#2B2A29"/>
<path fill-rule="evenodd" clip-rule="evenodd" d="M30.393 47.0324L30.508 47.1707L30.595 47.2823L30.6798 47.3957L30.7616 47.5104L30.8406 47.6257L30.9161 47.7421L30.9891 47.8596L31.0586 47.9781L31.1252 48.0975L31.1884 48.2178L31.2487 48.3393L31.3057 48.4617L31.3596 48.5847L31.4101 48.7089L31.4575 48.8341L31.5015 48.9602L31.5422 49.0865L31.5983 49.2806L31.6484 49.4756L31.6926 49.6713L31.7307 49.8671L31.7627 50.0636L31.7887 50.2601L31.8087 50.4569L31.8228 50.6532L31.8306 50.8492L31.8325 51.0448L31.8283 51.24L31.8182 51.4342L31.802 51.6275L31.7799 51.8194L31.7516 52.0101L31.7174 52.1992L31.6771 52.3869L31.6308 52.5729L31.5784 52.7571L31.5202 52.9387L31.4558 53.1184L31.3856 53.2955L31.3092 53.4701L31.2272 53.6417L31.1387 53.8109L31.0444 53.9768L30.9442 54.1394L30.8381 54.2988L30.7256 54.4548L30.6075 54.6069L30.4831 54.7554L30.3529 54.8998L30.2329 55.0236L30.1078 55.1443L29.9777 55.2619L29.8433 55.3757L29.7043 55.4865L29.561 55.5933L29.4139 55.6966L29.2629 55.7959L29.1082 55.8915L28.9504 55.983L28.7892 56.0705L28.6254 56.1537L28.4587 56.2325L28.2896 56.3072L28.1184 56.377L27.9452 56.4424L27.77 56.5032L27.5935 56.5593L27.4155 56.6105L27.2364 56.6566L27.0564 56.6978L26.876 56.7337L26.6951 56.7646L26.5141 56.7902L26.3329 56.8104L26.1521 56.8251L25.9717 56.8343L25.7922 56.8379L25.6135 56.8359L25.4359 56.828L25.2599 56.8145L25.0853 56.7947L24.9218 56.771L24.7591 56.7423L24.5974 56.7084L24.4371 56.6695L24.2778 56.6259L24.12 56.5771L23.9637 56.5234L23.8092 56.4647L23.6563 56.4012L23.5056 56.3327L23.3566 56.2594L23.21 56.181L23.0657 56.0979L22.9239 56.0095L22.7846 55.9165L22.648 55.8184L22.5139 55.7158L22.3832 55.608L22.2554 55.4954L22.1308 55.3778L22.0094 55.2555L21.8916 55.1284L21.7774 54.9964L21.6668 54.8592L21.5598 54.7174L21.4572 54.5707L21.3582 54.419L21.2638 54.2623L21.1733 54.1011L21.0875 53.9347L21.0062 53.7633L20.9308 53.5895L20.8115 53.2636L20.7265 52.9459L20.6726 52.6345L20.6487 52.3296L20.6526 52.0319L20.6829 51.7419L20.7381 51.4605L20.817 51.1881L20.9179 50.9253L21.0395 50.6733L21.1802 50.4327L21.3388 50.2042L21.5136 49.9891L21.7033 49.788L21.9058 49.6022L22.1201 49.432L22.3441 49.2791L22.5765 49.144L22.8155 49.0274L23.0596 48.9302L23.3067 48.8535L23.5555 48.7975L23.8044 48.7634L24.0517 48.7514L24.2954 48.7627L24.5348 48.7975L24.7683 48.8565L24.9948 48.9404L25.2131 49.0503L25.4222 49.1868L25.621 49.3513L25.9125 49.6524C26.5613 49.3371 26.8858 48.9431 26.8905 48.2068C26.8952 47.4575 26.584 46.8166 26.1521 46.219C25.5882 45.4393 23.9735 44.2372 23.1612 43.7352C22.5494 44.9264 20.7066 45.655 19.6198 44.3568C18.6448 43.1919 19.3753 41.5002 20.8645 41.0897C21.8251 40.8249 22.3954 40.7567 23.4832 40.0032C24.0146 39.6351 24.6703 38.8804 24.9232 38.9628C24.7598 39.4642 24.6989 40.0737 24.7819 40.8262C24.8632 41.5632 25.0583 42.3448 25.3564 43.0906C25.7866 44.1676 26.4386 45.1841 27.283 45.9104C28.1436 46.6507 29.1887 47.0951 30.393 47.0324V47.0324Z" fill="#2B2A29"/>
<path fill-rule="evenodd" clip-rule="evenodd" d="M41.8278 37.1334C43.7799 36.6633 45.1349 36.9232 45.9909 37.7711C46.8246 38.5969 46.7147 39.7959 44.696 39.9453C43.3693 40.0435 42.3449 40.6111 41.689 41.2309C40.6275 42.2341 40.2664 43.6066 41.5899 44.5249C41.9081 44.7242 42.119 45.0674 41.9602 45.4699C41.4492 46.1392 40.3629 45.9779 39.5877 45.481C36.2461 43.3393 37.9289 38.0723 41.8278 37.1334V37.1334Z" fill="#2B2A29"/>
<path fill-rule="evenodd" clip-rule="evenodd" d="M37.0559 46.5872C37.4155 47.8539 36.7766 48.618 35.7773 48.7086C34.4339 48.8301 33.9962 47.9585 33.8429 46.7579C33.6119 44.947 34.1093 43.8321 34.6522 41.9605C35.077 40.4965 37.0422 40.4726 36.7598 42.0859C36.496 43.594 36.5616 44.8464 37.0559 46.5872V46.5872Z" fill="#2B2A29"/>
<path fill-rule="evenodd" clip-rule="evenodd" d="M28.9692 39.1768C28.8976 40.3302 29.5969 41.0255 29.945 41.1624C31.4591 41.7582 32.0106 40.4458 31.384 37.5261C31.2222 36.7718 31.6937 36.4068 32.4405 36.3104C33.2219 36.2769 33.4167 36.3843 33.583 37.2334C33.7904 38.2917 33.762 40.0378 33.6388 41.0098C33.2945 43.7244 32.7074 45.186 31.5477 45.6562C28.3168 46.9662 26.1699 43.467 25.8655 40.706C25.6941 39.1513 26.262 38.5213 26.996 38.1915C28.0296 37.7269 29.0722 37.5166 28.9692 39.1768Z" fill="#2B2A29"/>
<path fill-rule="evenodd" clip-rule="evenodd" d="M36.3392 36.1057C37.3492 36.0699 38.197 36.8659 38.2325 37.8832C38.268 38.9006 37.4778 39.7546 36.4679 39.7904C35.4579 39.8261 34.6102 39.0302 34.5746 38.0128C34.5391 36.9955 35.3293 36.1415 36.3392 36.1057Z" fill="#2B2A29"/>
<path fill-rule="evenodd" clip-rule="evenodd" d="M57.8484 15.5874C59.3999 15.5874 60.6576 16.8544 60.6576 18.4171C60.6576 19.9799 59.3999 21.2469 57.8484 21.2469C56.2971 21.2469 55.0393 19.9799 55.0393 18.4171C55.0393 16.8544 56.2971 15.5874 57.8484 15.5874ZM56.6982 19.9612V16.8766H58.0554C58.3284 16.8766 58.5358 16.9046 58.6776 16.9599C58.8194 17.0151 58.9328 17.1128 59.0176 17.2528C59.1024 17.3928 59.1445 17.5479 59.1445 17.7174C59.1445 17.9363 59.0738 18.1209 58.9335 18.271C58.7931 18.421 58.5764 18.5158 58.2828 18.5568C58.3904 18.6084 58.472 18.6598 58.5272 18.7104C58.6459 18.8192 58.7582 18.9563 58.8622 19.1211L59.3919 19.9612H58.8858L58.4809 19.3193C58.3637 19.1331 58.2658 18.9916 58.1894 18.8935C58.1127 18.795 58.0439 18.7268 57.9833 18.6874C57.9236 18.6486 57.8618 18.6202 57.7987 18.6056C57.7534 18.5951 57.6782 18.5913 57.5735 18.5913H57.1045V19.9612H56.6982V19.9612ZM57.1045 18.238H57.974C58.1594 18.238 58.3033 18.2182 58.4075 18.1798C58.5114 18.1414 58.5902 18.0797 58.6442 17.9946C58.6979 17.9096 58.7254 17.8179 58.7254 17.7181C58.7254 17.5723 58.6733 17.4516 58.5686 17.3576C58.4638 17.2636 58.2983 17.2169 58.0724 17.2169H57.1045V18.238V18.238Z" fill="#2B2A29"/>
<path d="M21.562 11.0576L22.192 10.5765C22.2926 10.6934 22.4061 10.7622 22.5325 10.7818C22.6587 10.8026 22.8024 10.7683 22.9625 10.6806C23.1391 10.584 23.2542 10.4788 23.3087 10.3646C23.3436 10.286 23.3401 10.2078 23.2987 10.1309C23.2708 10.0792 23.2308 10.0447 23.18 10.0282C23.1283 10.0142 23.0354 10.0251 22.9027 10.062C22.2849 10.241 21.8754 10.3201 21.6732 10.2998C21.3922 10.2707 21.1847 10.131 21.05 9.88128C20.9279 9.65486 20.9144 9.41667 21.0081 9.16623C21.1019 8.91579 21.3341 8.6892 21.7049 8.48628C22.0582 8.29288 22.3526 8.20754 22.587 8.22967C22.8218 8.25264 23.0332 8.3599 23.2209 8.55253L22.6439 9.02417C22.5614 8.93729 22.466 8.88778 22.3596 8.87566C22.2532 8.86362 22.1285 8.89723 21.9851 8.97571C21.8041 9.0747 21.6883 9.17054 21.6369 9.26463C21.6041 9.32924 21.6036 9.38999 21.6343 9.44679C21.6609 9.49606 21.7058 9.52565 21.7699 9.53492C21.8568 9.54683 22.1047 9.49452 22.5148 9.37836C22.9247 9.26211 23.2343 9.22475 23.4439 9.26691C23.6532 9.31036 23.817 9.44255 23.9351 9.66148C24.0635 9.89966 24.0756 10.1592 23.9698 10.4389C23.8646 10.7183 23.6183 10.9645 23.2301 11.1769C22.8785 11.3694 22.561 11.4501 22.2783 11.4198C21.9964 11.389 21.7575 11.2687 21.562 11.0576V11.0576ZM23.7331 7.11134L23.4586 6.44157L24.1757 6.14333L24.4502 6.8131L23.7331 7.11134ZM25.006 10.2172L23.8843 7.48035L24.6015 7.18211L25.7231 9.91899L25.006 10.2172ZM29.026 8.85343L28.2815 9.07379L27.8593 7.62598C27.77 7.31944 27.6959 7.12636 27.638 7.04631C27.5792 6.9657 27.5074 6.91164 27.4202 6.88285C27.3332 6.85414 27.239 6.85526 27.1375 6.88527C27.0071 6.92386 26.9008 6.994 26.8182 7.09576C26.7348 7.19769 26.6919 7.31342 26.6878 7.44148C26.6833 7.57069 26.7275 7.79347 26.8202 8.11093L27.1948 9.39538L26.4504 9.61574L25.6218 6.77493L26.312 6.57068L26.4336 6.98759C26.5878 6.59603 26.8522 6.34535 27.228 6.23413C27.3929 6.18539 27.5529 6.17068 27.707 6.18956C27.8622 6.20896 27.9875 6.25416 28.0841 6.32563C28.1818 6.39784 28.2614 6.48825 28.3229 6.59792C28.3853 6.70735 28.4478 6.87112 28.5116 7.09005L29.026 8.85343V8.85343ZM31.9852 6.19533L31.2524 6.45425C31.2029 6.30725 31.1267 6.20314 31.0239 6.14106C30.9212 6.07988 30.7985 6.06048 30.655 6.08405C30.4641 6.11532 30.322 6.20706 30.2299 6.35897C30.1379 6.51087 30.117 6.74261 30.1675 7.0551C30.2237 7.40236 30.321 7.63782 30.4598 7.76241C30.5985 7.88707 30.7647 7.93297 30.9585 7.90125C31.1038 7.87737 31.2162 7.8156 31.2949 7.71696C31.3746 7.6181 31.4165 7.46385 31.4217 7.25298L32.1973 7.25876C32.1755 7.62066 32.0681 7.90899 31.8752 8.12368C31.6822 8.33829 31.3994 8.47619 31.026 8.53754C30.6029 8.60691 30.2429 8.52728 29.9479 8.29918C29.6517 8.07035 29.4655 7.71752 29.3883 7.23975C29.3101 6.75644 29.3762 6.3603 29.5851 6.04952C29.794 5.73878 30.1143 5.5485 30.5456 5.47777C30.8977 5.41999 31.1906 5.45095 31.424 5.56969C31.6565 5.68857 31.8432 5.89678 31.9852 6.19533V6.19533ZM34.5295 7.134L35.3129 7.20582C35.2356 7.49873 35.0947 7.72792 34.8923 7.89397C34.689 8.05925 34.4264 8.15456 34.1054 8.17907C33.5961 8.21794 33.2062 8.07892 32.9372 7.76185C32.7239 7.50742 32.6015 7.17539 32.5706 6.76481C32.5338 6.27559 32.632 5.88193 32.8643 5.58573C33.0966 5.28864 33.4071 5.12574 33.7949 5.09609C34.2298 5.06292 34.5842 5.18174 34.8582 5.45266C35.1314 5.72355 35.2854 6.15906 35.3191 6.75911L33.3821 6.90695C33.4051 7.13785 33.4808 7.31321 33.6101 7.43311C33.7383 7.55294 33.8919 7.60613 34.0689 7.59258C34.1902 7.58337 34.2894 7.54236 34.3663 7.4697C34.4442 7.39704 34.4982 7.2852 34.5295 7.134V7.134ZM34.5151 6.33988C34.4925 6.11367 34.4221 5.94552 34.3031 5.83641C34.184 5.72628 34.046 5.67761 33.8879 5.68976C33.7194 5.70258 33.5848 5.77587 33.484 5.90844C33.3833 6.04109 33.3423 6.21487 33.3604 6.42802L34.5151 6.33988V6.33988ZM40.1621 7.75253L40.0609 8.46985L37.3639 8.08404C37.4314 7.81521 37.5556 7.56982 37.7357 7.34683C37.9159 7.12391 38.2503 6.84132 38.7372 6.49896C39.1297 6.22286 39.373 6.03195 39.4679 5.92746C39.596 5.78252 39.6716 5.63195 39.6937 5.47472C39.7181 5.30156 39.6911 5.16227 39.6117 5.05589C39.5332 4.94951 39.4126 4.88528 39.2509 4.86214C39.0903 4.83913 38.9563 4.86988 38.8471 4.95413C38.7391 5.03757 38.6621 5.19175 38.6151 5.41652L37.8578 5.22943C37.9638 4.80863 38.1501 4.5222 38.4175 4.37022C38.6847 4.21926 38.9988 4.16916 39.3605 4.22091C39.7567 4.27757 40.0526 4.43038 40.2493 4.67834C40.4451 4.92629 40.5204 5.21084 40.4751 5.53177C40.4494 5.71438 40.3922 5.88295 40.3044 6.03944C40.2167 6.19495 40.0896 6.35256 39.923 6.51304C39.8135 6.62037 39.6201 6.76835 39.3453 6.95867C39.0698 7.1487 38.8946 7.27543 38.8196 7.34059C38.7439 7.40464 38.6813 7.46963 38.6313 7.53354L40.1621 7.75253V7.75253ZM42.7596 4.83209C43.1427 4.91915 43.4109 5.12532 43.5654 5.45088C43.7492 5.83578 43.7567 6.40761 43.5872 7.16453C43.4179 7.9204 43.1664 8.43452 42.8337 8.70583C42.5581 8.92976 42.2293 8.99836 41.8462 8.91131C41.4613 8.82387 41.1844 8.604 41.0156 8.25187C40.8467 7.8996 40.8483 7.33947 41.0199 6.57334C41.1883 5.82114 41.4394 5.30899 41.772 5.03757C42.0477 4.81364 42.3765 4.74504 42.7596 4.83209V4.83209ZM42.6175 5.46653C42.5273 5.44601 42.4396 5.45728 42.3564 5.50078C42.2723 5.54301 42.1934 5.63626 42.1205 5.78049C42.0247 5.96632 41.9242 6.29443 41.8192 6.76278C41.7142 7.23218 41.6651 7.5592 41.672 7.74497C41.6787 7.93073 41.7105 8.06079 41.7675 8.13516C41.8244 8.2094 41.898 8.25642 41.9882 8.27691C42.0785 8.29739 42.1662 8.28612 42.2504 8.24287C42.3334 8.20033 42.4123 8.10718 42.4852 7.96295C42.5806 7.7789 42.681 7.45181 42.7861 6.98251C42.891 6.51406 42.9401 6.18697 42.9332 6.0012C42.9264 5.81544 42.8948 5.68444 42.8379 5.6102C42.7812 5.53495 42.7078 5.48701 42.6175 5.46653V5.46653ZM46.3065 5.95011C46.6738 6.09007 46.911 6.33176 47.019 6.67591C47.1479 7.08277 47.0763 7.65007 46.8039 8.37587C46.5319 9.10068 46.2119 9.57453 45.845 9.79664C45.5411 9.97974 45.206 10.0016 44.8387 9.86174C44.4696 9.72118 44.2257 9.46472 44.1072 9.09231C43.9887 8.71977 44.0676 8.16528 44.3432 7.43069C44.6139 6.70945 44.9333 6.23742 45.3002 6.01528C45.6041 5.8321 45.9392 5.81029 46.3065 5.95011V5.95011ZM46.0782 6.55849C45.9916 6.52558 45.9033 6.52446 45.8148 6.55583C45.7258 6.58588 45.6348 6.66715 45.5427 6.79979C45.4221 6.9704 45.2772 7.28121 45.1087 7.73033C44.9398 8.1804 44.8461 8.49741 44.8272 8.6823C44.8082 8.86719 44.8218 9.0005 44.8679 9.08205C44.914 9.16357 44.9804 9.22044 45.067 9.25335C45.1535 9.28627 45.2419 9.28746 45.3313 9.2564C45.4193 9.2259 45.5103 9.1448 45.6025 9.01205C45.7224 8.84327 45.867 8.53337 46.0358 8.08341C46.2043 7.63421 46.2981 7.3171 46.317 7.13228C46.3359 6.94732 46.3227 6.81317 46.2766 6.73165C46.2308 6.64915 46.1647 6.59151 46.0782 6.55849V6.55849ZM48.1062 7.54684L48.4425 6.90649L50.7954 8.16027L50.5305 8.66455C50.2351 8.75338 49.8934 8.92423 49.5034 9.17677C49.1142 9.4298 48.7599 9.73039 48.442 10.0794C48.1242 10.4285 47.8822 10.7632 47.7166 11.0826L47.0557 10.7305C47.3301 10.2366 47.6998 9.78071 48.1658 9.36317C48.632 8.94692 49.1336 8.61825 49.6714 8.38101L48.1062 7.54684V7.54684Z" fill="#2B2A29"/>
<path d="M8.03953 61.1529L8.41673 61.518L8.60337 61.3221C8.81163 61.1038 8.99055 60.9629 9.1394 60.9002C9.28901 60.8367 9.45764 60.8316 9.64609 60.8842C9.8354 60.9376 10.0252 61.0555 10.2154 61.2397C10.4098 61.4277 10.5731 61.6418 10.7045 61.881L10.163 62.2737C10.0768 62.1406 9.98286 62.024 9.88021 61.9247C9.77933 61.8271 9.68509 61.7808 9.5968 61.785C9.50836 61.7893 9.40029 61.8577 9.27309 61.991L9.09675 62.1759L9.60799 62.6706L9.09303 63.2106L8.58182 62.7159L6.62215 64.7709L5.94214 64.1128L7.90177 62.0579L7.52457 61.6929L8.03953 61.1529ZM8.18442 66.2443L7.47938 65.6136L9.85139 62.9232L10.5049 63.5079L10.1682 63.8897C10.4398 63.8098 10.6454 63.7819 10.785 63.8062C10.9245 63.8306 11.0509 63.8943 11.165 63.9964C11.3262 64.1406 11.4419 64.3244 11.5127 64.5469L10.7471 64.9716C10.6964 64.7872 10.62 64.6493 10.5179 64.5581C10.4185 64.4691 10.31 64.4215 10.1935 64.4145C10.076 64.4084 9.93517 64.4587 9.76932 64.5667C9.60333 64.6748 9.3186 64.9579 8.9156 65.4149L8.18442 66.2443V66.2443ZM11.8656 67.7468L12.5232 68.4458C12.2192 68.6506 11.9081 68.7458 11.591 68.7336C11.2738 68.7199 10.9582 68.5946 10.6459 68.3574C10.1503 67.9811 9.9052 67.5389 9.91237 67.0321C9.92067 66.6274 10.0735 66.2255 10.3724 65.8259C10.7286 65.3498 11.132 65.0701 11.58 64.9877C12.0288 64.9044 12.4419 65.0068 12.8193 65.2934C13.2426 65.6147 13.4711 66.0098 13.5055 66.4785C13.5387 66.9466 13.3321 67.4683 12.8848 68.0432L10.9996 66.6118C10.8366 66.8412 10.7659 67.0624 10.7884 67.2762C10.8099 67.4894 10.9077 67.6619 11.0798 67.7927C11.198 67.8824 11.3212 67.9253 11.4492 67.9212C11.5781 67.9178 11.7165 67.8594 11.8656 67.7468V67.7468ZM12.4853 67.0106C12.6448 66.7859 12.7146 66.5756 12.6931 66.3797C12.6722 66.183 12.585 66.027 12.431 65.9102C12.2671 65.7857 12.086 65.7437 11.8883 65.7832C11.6907 65.8227 11.5149 65.9482 11.3614 66.1572L12.4853 67.0106V67.0106ZM12.8878 68.6379L13.7657 69.0312C13.701 69.2077 13.6948 69.3697 13.7484 69.5167C13.8004 69.6642 13.9209 69.7982 14.1074 69.9185C14.3132 70.0511 14.4918 70.1129 14.6444 70.1043C14.748 70.0956 14.8286 70.046 14.8854 69.9565C14.9237 69.8961 14.9366 69.8331 14.9244 69.7689C14.9088 69.7054 14.8429 69.6121 14.7261 69.4915C14.1746 68.9341 13.8508 68.5414 13.7537 68.3128C13.6196 67.9943 13.6455 67.69 13.8305 67.399C13.9981 67.1353 14.2419 66.9811 14.5614 66.9347C14.881 66.8884 15.2567 67.0045 15.6886 67.2831C16.1 67.5484 16.363 67.814 16.477 68.0784C16.5903 68.3435 16.6011 68.6331 16.5075 68.9474L15.6708 68.6053C15.7143 68.466 15.7107 68.3346 15.6611 68.2134C15.6115 68.0922 15.5027 67.9782 15.3356 67.8704C15.125 67.7346 14.9557 67.6666 14.8262 67.6668C14.7388 67.6694 14.6742 67.7045 14.6321 67.7707C14.5956 67.8281 14.5908 67.8936 14.6185 67.9677C14.6569 68.068 14.8577 68.3031 15.2208 68.6745C15.584 69.0459 15.8052 69.356 15.8835 69.6054C15.9604 69.8553 15.9167 70.1085 15.7546 70.3634C15.5784 70.6407 15.3112 70.8061 14.9536 70.8566C14.5968 70.9078 14.1921 70.7881 13.74 70.4965C13.3304 70.2323 13.059 69.9393 12.9252 69.6183C12.7924 69.298 12.7793 68.9712 12.8878 68.6379V68.6379ZM18.9515 67.646L18.1315 69.2897C18.5685 69.1009 18.9783 69.1027 19.3585 69.2953C19.5543 69.3944 19.7126 69.5198 19.8333 69.6714C19.9536 69.8241 20.0256 69.9756 20.0489 70.1297C20.0726 70.2828 20.0647 70.4352 20.0248 70.587C19.9861 70.7394 19.8944 70.9594 19.7506 71.2474L18.8111 73.1305L17.9686 72.704L18.8144 71.0087C18.9823 70.6722 19.0725 70.4502 19.0861 70.3432C19.0986 70.2358 19.0773 70.1345 19.0215 70.0403C18.9663 69.9451 18.8773 69.8663 18.7532 69.8036C18.6117 69.7319 18.4687 69.7022 18.3225 69.7149C18.1768 69.7264 18.0443 69.7887 17.924 69.9011C17.8033 70.012 17.6756 70.2034 17.5412 70.4728L16.7387 72.0814L15.8962 71.6549L18.109 67.2195L18.9515 67.646V67.646ZM25.8313 74.8399L25.0865 75.3948C24.8527 75.1876 24.6425 74.9329 24.4571 74.6312C24.2184 74.7521 23.9788 74.8236 23.7407 74.8464C23.5025 74.8693 23.2347 74.8394 22.936 74.7568C22.3453 74.5935 21.9465 74.3023 21.7393 73.8842C21.5786 73.5618 21.5449 73.2313 21.6369 72.8937C21.7207 72.5862 21.8868 72.3349 22.1361 72.1403C22.3843 71.9454 22.7144 71.8078 23.1253 71.7274C23.0156 71.4884 22.9432 71.2696 22.9094 71.0709C22.8744 70.8718 22.8788 70.6945 22.9216 70.5374C23.0005 70.2477 23.1827 70.0332 23.4677 69.8951C23.7517 69.7569 24.1079 69.7463 24.5326 69.8638C24.9419 69.977 25.2338 70.1716 25.4076 70.4462C25.581 70.7218 25.6259 71.011 25.5427 71.3163C25.4898 71.5102 25.3834 71.6784 25.222 71.8207C25.0607 71.963 24.7781 72.0969 24.373 72.2211L24.7853 73.2876C24.9004 73.1709 25.0163 73.0076 25.1334 72.8004L25.9079 73.2147C25.7459 73.4862 25.6151 73.6826 25.5172 73.8016C25.4203 73.9211 25.3238 74.0178 25.2292 74.0899C25.3049 74.2139 25.408 74.3549 25.5382 74.5144C25.6684 74.6738 25.7661 74.7824 25.8313 74.8399V74.8399ZM24.0631 71.5469L24.3595 71.424C24.5783 71.3324 24.7063 71.2168 24.7442 71.0775C24.7764 70.9594 24.7606 70.8471 24.6957 70.7405C24.6321 70.6331 24.5262 70.5594 24.378 70.5185C24.2341 70.4787 24.1114 70.4843 24.0097 70.534C23.9089 70.5852 23.8449 70.6586 23.8188 70.7543C23.7878 70.8681 23.819 71.024 23.9122 71.2236L24.0631 71.5469V71.5469ZM23.4348 72.4468C23.1977 72.4962 23.0064 72.5824 22.8615 72.704C22.7177 72.826 22.6237 72.9654 22.5812 73.1213C22.5271 73.3197 22.5469 73.5001 22.6413 73.6604C22.7342 73.8215 22.8886 73.9313 23.1043 73.991C23.2458 74.0301 23.3906 74.0403 23.5366 74.0195C23.6837 73.9991 23.852 73.9449 24.0426 73.8563L23.4348 72.4468V72.4468ZM27.9125 74.9621L28.8727 74.9302C28.891 75.1174 28.9556 75.2659 29.0675 75.3747C29.1782 75.4845 29.3447 75.5521 29.5645 75.5784C29.8071 75.6074 29.9946 75.5844 30.1282 75.5097C30.2177 75.4563 30.2687 75.3763 30.2811 75.2707C30.2894 75.1996 30.2737 75.1372 30.2348 75.0849C30.1933 75.0345 30.0936 74.9795 29.9363 74.9224C29.1986 74.6631 28.7372 74.4521 28.5508 74.289C28.2922 74.0615 28.1838 73.7762 28.2241 73.4332C28.2608 73.1222 28.4134 72.8763 28.6808 72.6942C28.9483 72.5119 29.3366 72.4513 29.8458 72.5122C30.331 72.5701 30.6827 72.6936 30.8997 72.8813C31.1166 73.0701 31.2517 73.3259 31.3036 73.6498L30.4025 73.7098C30.3814 73.5653 30.3212 73.4487 30.224 73.3614C30.1269 73.2742 29.9796 73.2194 29.7826 73.1959C29.5343 73.1662 29.3525 73.1794 29.2361 73.2364C29.1585 73.2771 29.1157 73.3372 29.1064 73.4153C29.0984 73.483 29.1225 73.5439 29.1796 73.5985C29.2575 73.6719 29.5399 73.7952 30.0277 73.9698C30.5153 74.1444 30.8486 74.3262 31.0272 74.5162C31.2045 74.7073 31.2748 74.9543 31.2394 75.2548C31.201 75.5819 31.0322 75.848 30.7322 76.0507C30.4334 76.2536 30.0174 76.3237 29.4843 76.26C29.0012 76.2023 28.6301 76.0579 28.3707 75.8279C28.1125 75.598 27.9593 75.3098 27.9125 74.9621V74.9621ZM31.9816 72.8967L32.8482 72.9263L32.8317 73.4172C33.1552 73.0501 33.5318 72.8733 33.9617 72.8879C34.1898 72.8957 34.3866 72.9499 34.5508 73.0502C34.7161 73.1507 34.8489 73.2987 34.949 73.494C35.1126 73.3076 35.287 73.1702 35.4714 73.0816C35.6557 72.9931 35.8511 72.9524 36.0574 72.9594C36.3187 72.9683 36.5382 73.029 36.7169 73.1426C36.8944 73.2563 37.0245 73.4179 37.1068 73.6288C37.1671 73.7834 37.1909 74.0328 37.1794 74.3758L37.1022 76.6717L36.1598 76.6395L36.2287 74.5874C36.2408 74.2305 36.2163 73.9996 36.1544 73.8946C36.072 73.7565 35.9389 73.6837 35.7577 73.6775C35.6259 73.6731 35.4996 73.7092 35.38 73.7862C35.2614 73.8641 35.1726 73.9802 35.1158 74.1344C35.0588 74.2896 35.0254 74.5359 35.014 74.8743L34.956 76.5984L34.0137 76.5664L34.0799 74.5985C34.0916 74.2498 34.082 74.0228 34.0521 73.9212C34.0222 73.8184 33.9732 73.7404 33.9038 73.6884C33.8355 73.6364 33.74 73.6088 33.6197 73.6046C33.4741 73.5997 33.3421 73.6346 33.2237 73.7091C33.104 73.7848 33.0177 73.8951 32.9622 74.0424C32.9068 74.1897 32.8732 74.4359 32.8617 74.7802L32.803 76.5251L31.8607 76.4929L31.9816 72.8967V72.8967ZM37.686 74.6893C37.6622 74.3736 37.7156 74.0624 37.8478 73.7556C37.9798 73.4476 38.1812 73.2062 38.452 73.029C38.7227 72.8517 39.0312 72.7492 39.3801 72.7224C39.9188 72.6811 40.3726 72.8236 40.7435 73.1496C41.1145 73.477 41.3197 73.9086 41.3605 74.4478C41.4016 74.9916 41.2619 75.4554 40.9424 75.8392C40.6218 76.223 40.1983 76.4352 39.6711 76.4756C39.345 76.5007 39.0282 76.4497 38.7208 76.3237C38.4144 76.1979 38.1726 75.9973 37.9964 75.7212C37.8203 75.4461 37.7172 75.1018 37.686 74.6893V74.6893ZM38.6574 74.6657C38.6844 75.0218 38.7885 75.2884 38.9698 75.4645C39.1524 75.6417 39.3654 75.7204 39.6113 75.7015C39.856 75.6827 40.0548 75.5724 40.2063 75.3696C40.3578 75.1679 40.4204 74.8861 40.3932 74.5255C40.3665 74.174 40.2626 73.9097 40.0825 73.7335C39.9023 73.5561 39.6891 73.4775 39.4445 73.4963C39.1986 73.5151 38.9998 73.6254 38.8461 73.8285C38.6933 74.0302 38.6306 74.3097 38.6574 74.6657V74.6657ZM41.6677 74.2801C41.6098 73.969 41.6292 73.6537 41.7273 73.3342C41.8251 73.0136 41.9992 72.7515 42.2491 72.5454C42.4991 72.3395 42.7947 72.2037 43.1385 72.1387C43.6695 72.0383 44.1361 72.1301 44.5401 72.4135C44.9443 72.698 45.1951 73.1044 45.2941 73.6359C45.3939 74.1719 45.3053 74.6484 45.0293 75.065C44.7521 75.4818 44.3541 75.7392 43.8345 75.8375C43.5131 75.8982 43.1927 75.8824 42.8734 75.791C42.5553 75.6996 42.2932 75.5268 42.0882 75.2716C41.8833 75.0177 41.7434 74.6867 41.6677 74.2801V74.2801ZM42.6309 74.1498C42.6962 74.5008 42.8286 74.7543 43.0279 74.9095C43.2286 75.0655 43.4488 75.1204 43.6912 75.0745C43.9325 75.0289 44.1181 74.8974 44.2467 74.6792C44.3754 74.462 44.4071 74.1751 44.3409 73.8196C44.2764 73.4732 44.1444 73.2218 43.9463 73.0665C43.7479 72.91 43.5276 72.8552 43.2864 72.9008C43.0439 72.9467 42.8584 73.0781 42.7275 73.2968C42.5976 73.5142 42.5655 73.7989 42.6309 74.1498V74.1498ZM46.9396 71.2355L47.1407 71.9635L46.5174 72.1382L46.9054 73.542C46.9842 73.8269 47.0355 73.9913 47.0607 74.0347C47.0857 74.0779 47.123 74.1094 47.1747 74.1286C47.225 74.1468 47.2802 74.1482 47.3409 74.1311C47.426 74.1072 47.5396 74.0442 47.6835 73.9402L47.9566 74.6313C47.7708 74.7819 47.5447 74.8943 47.2773 74.9693C47.1137 75.0153 46.959 75.0286 46.8121 75.0099C46.6653 74.9911 46.5492 74.9456 46.4641 74.8747C46.3775 74.8031 46.3027 74.6958 46.2365 74.5512C46.1883 74.4495 46.1186 74.2364 46.0285 73.9102L45.6092 72.393L45.1915 72.5101L44.9902 71.7821L45.408 71.665L45.2179 70.977L45.9767 70.1813L46.3163 71.4102L46.9396 71.2355ZM47.6296 69.5296L48.284 71.247C48.4397 70.7945 48.7169 70.4905 49.1143 70.3368C49.3189 70.2578 49.5174 70.2243 49.7101 70.2365C49.9031 70.2497 50.0628 70.2981 50.1915 70.3845C50.32 70.4698 50.4264 70.5784 50.5111 70.7103C50.5968 70.8417 50.6965 71.0581 50.8112 71.3591L51.5609 73.3268L50.6806 73.6672L50.0057 71.8959C49.8716 71.5441 49.7695 71.3275 49.7 71.2453C49.6296 71.1637 49.5409 71.1113 49.4343 71.0895C49.3272 71.0665 49.2094 71.0798 49.0798 71.1299C48.932 71.1871 48.8139 71.2736 48.7247 71.391C48.6351 71.5074 48.5916 71.648 48.5931 71.8132C48.5933 71.9778 48.6478 72.2018 48.7551 72.4833L49.3955 74.164L48.5152 74.5044L46.7494 69.87L47.6296 69.5296V69.5296ZM50.7606 69.2111L50.4002 68.4089L51.2593 68.0173L51.6197 68.8195L50.7606 69.2111ZM52.4319 72.9314L50.9592 69.6532L51.8182 69.2616L53.291 72.5398L52.4319 72.9314V72.9314ZM55.4123 70.1518L56.3059 69.8094C56.3765 70.1709 56.3439 70.4967 56.2108 70.7868C56.0761 71.0765 55.8398 71.3216 55.5023 71.5208C54.9667 71.8366 54.4672 71.8943 54.0057 71.6925C53.6381 71.5291 53.3286 71.2323 53.0776 70.8006C52.7785 70.2861 52.6774 69.8034 52.7745 69.3551C52.8708 68.9059 53.1237 68.5612 53.5315 68.3207C53.9889 68.0509 54.4388 67.9904 54.8815 68.1389C55.3232 68.2882 55.7217 68.681 56.0762 69.3182L54.0391 70.5199C54.1864 70.7597 54.362 70.9107 54.5665 70.9721C54.7701 71.0341 54.9658 71.0096 55.1519 70.8998C55.2796 70.8245 55.3662 70.7266 55.4118 70.606C55.4583 70.4848 55.4581 70.3336 55.4123 70.1518V70.1518ZM54.9764 69.2921C54.8319 69.0574 54.666 68.9115 54.4783 68.8562C54.29 68.7998 54.1135 68.8209 53.9471 68.919C53.77 69.0236 53.6618 69.1758 53.6219 69.3748C53.5821 69.5737 53.6294 69.7854 53.7617 70.0086L54.9764 69.2921V69.2921ZM59.0915 69.2296L56.0406 65.3312L56.7812 64.7432L57.8819 66.1498C57.9054 65.7058 58.0728 65.3596 58.3862 65.1106C58.7276 64.8396 59.1069 64.74 59.5256 64.8121C59.9443 64.8842 60.3365 65.154 60.7023 65.6213C61.0801 66.104 61.2577 66.5663 61.2343 67.0086C61.2102 67.45 61.0351 67.801 60.7099 68.0592C60.5494 68.1866 60.3592 68.27 60.1387 68.3112C59.9175 68.3515 59.6896 68.3382 59.4534 68.2699L59.7779 68.6845L59.0915 69.2296V69.2296ZM58.6728 67.1829C58.9022 67.476 59.1186 67.6572 59.3198 67.724C59.6049 67.8214 59.8533 67.786 60.0668 67.6164C60.2307 67.4863 60.315 67.3046 60.3204 67.0707C60.3249 66.8376 60.2079 66.5687 59.97 66.2647C59.7164 65.9407 59.4754 65.754 59.2469 65.7029C59.0186 65.6518 58.8138 65.6981 58.6318 65.8426C58.4535 65.9842 58.3605 66.1714 58.3518 66.4049C58.3431 66.6384 58.4498 66.8979 58.6728 67.1829ZM61.246 64.3251L60.5258 64.8109C60.3537 64.4904 60.2947 64.1868 60.3482 63.9011C60.4017 63.6153 60.5958 63.3102 60.9299 62.9867C61.2334 62.6928 61.4943 62.5093 61.7123 62.4376C61.9294 62.3668 62.1219 62.3567 62.2888 62.4099C62.4556 62.463 62.681 62.6375 62.9657 62.9358L63.7188 63.7451C63.9358 63.9725 64.1071 64.1304 64.232 64.2178C64.3568 64.3053 64.5079 64.3819 64.6851 64.4475L64.0102 65.1009C63.9499 65.0727 63.864 65.0277 63.7541 64.9642C63.7045 64.9338 63.6707 64.9152 63.6537 64.9074C63.6478 65.1346 63.6056 65.3405 63.5281 65.526C63.4506 65.7117 63.3378 65.877 63.1882 66.0219C62.9243 66.2773 62.6468 66.4066 62.3564 66.4091C62.0667 66.4123 61.8157 66.3027 61.6042 66.0811C61.4651 65.9353 61.375 65.7709 61.3348 65.5887C61.2954 65.4073 61.3079 65.2253 61.3755 65.0428C61.4424 64.861 61.5718 64.6331 61.7638 64.3591C62.0241 63.9916 62.1908 63.7212 62.264 63.551L62.198 63.4818C62.0708 63.3486 61.9479 63.2849 61.8285 63.2898C61.7092 63.2964 61.5597 63.3866 61.3802 63.5603C61.2587 63.6781 61.1875 63.7936 61.1666 63.9083C61.1441 64.0231 61.1714 64.1617 61.246 64.3251V64.3251ZM62.6884 63.9959C62.6295 64.1091 62.5247 64.2778 62.3743 64.5021C62.2247 64.7255 62.1388 64.8855 62.1175 64.9799C62.0902 65.1297 62.1219 65.2528 62.2149 65.3504C62.3071 65.447 62.4214 65.495 62.5592 65.4962C62.6972 65.4973 62.8206 65.4449 62.9306 65.3384C63.053 65.22 63.1315 65.0654 63.166 64.8766C63.1883 64.7347 63.1714 64.607 63.1111 64.4921C63.0728 64.417 62.9754 64.2966 62.8188 64.1325L62.6884 63.9959V63.9959ZM65.8185 63.2642L65.1653 63.9493L62.5891 61.4567L63.1946 60.8218L63.5603 61.1755C63.4915 60.899 63.4719 60.6911 63.5016 60.5515C63.5313 60.412 63.5992 60.2872 63.705 60.1764C63.8543 60.0197 64.0412 59.9105 64.2647 59.8479L64.6561 60.6351C64.4711 60.679 64.3315 60.7504 64.2369 60.8496C64.1447 60.9463 64.0933 61.0536 64.0818 61.1707C64.0712 61.2886 64.1155 61.4323 64.2162 61.6034C64.317 61.7747 64.5867 62.0724 65.0243 62.4958L65.8185 63.2642V63.2642Z" fill="#2B2A29"/>
</svg>
