<svg width="39" height="31" viewBox="0 0 39 31" fill="none" xmlns="http://www.w3.org/2000/svg">
<path d="M35.5248 0H2.6288C1.68999 0 0.821853 0.454346 0.352447 1.19242C-0.117482 1.93001 -0.117482 2.83916 0.352447 3.57681C0.821853 4.31488 1.68995 4.76923 2.6288 4.76923H35.5248C36.4636 4.76923 37.3317 4.31488 37.8011 3.57681C38.271 2.83922 38.271 1.93007 37.8011 1.19242C37.3317 0.454346 36.4636 0 35.5248 0Z" fill="#2B2A29"/>
<path d="M35.5248 13.1154H2.6288C1.68999 13.1154 0.821853 13.5702 0.352447 14.3077C-0.117482 15.0457 -0.117482 15.9543 0.352447 16.6923C0.821853 17.4298 1.68995 17.8846 2.6288 17.8846H35.5248C36.4636 17.8846 37.3317 17.4298 37.8011 16.6923C38.271 15.9543 38.271 15.0458 37.8011 14.3077C37.3317 13.5702 36.4636 13.1154 35.5248 13.1154Z" fill="#2B2A29"/>
<path d="M38.1536 28.6151C38.1536 27.983 37.8769 27.376 37.384 26.9289C36.891 26.4817 36.2225 26.2308 35.5252 26.2308H2.62883C1.69001 26.2308 0.821863 26.6851 0.352451 27.4232C-0.117484 28.1608 -0.117484 29.0699 0.352451 29.8076C0.821863 30.5457 1.68997 31 2.62883 31H35.5252C36.2225 31 36.8911 30.7486 37.384 30.3014C37.8769 29.8542 38.1536 29.2477 38.1536 28.6152V28.6151Z" fill="#2B2A29"/>
</svg>
