<svg width="85" height="85" viewBox="0 0 85 85" fill="none" xmlns="http://www.w3.org/2000/svg">
<rect width="85" height="85" rx="20" fill="white"/>
<g clip-path="url(#clip0_140_34)">
<path d="M42 29C34.2634 29 28 35.2702 28 43C28 50.7366 34.2702 57 42 57C49.7366 57 56 50.7298 56 43C56 35.2634 49.7298 29 42 29ZM42 52.087C36.9779 52.087 32.913 48.0198 32.913 43C32.913 37.9802 36.9802 33.913 42 33.913C47.0198 33.913 51.087 37.9802 51.087 43C51.0893 48.0198 47.0221 52.087 42 52.087Z" fill="#6B9D52"/>
<path d="M53.1335 16.1696C48.1655 15.9379 35.8603 15.9491 30.8878 16.1696C26.5183 16.3744 22.664 17.4296 19.5568 20.5368C14.3638 25.7297 15.0275 32.7271 15.0275 42.9891C15.0275 53.492 14.4425 60.3273 19.5568 65.4415C24.77 70.6524 31.8688 69.9707 42.0095 69.9707C52.4135 69.9707 56.0045 69.9774 59.6833 68.5532C64.685 66.6115 68.4605 62.1408 68.8295 54.1107C69.0635 49.1405 69.05 36.8378 68.8295 31.8653C68.384 22.3863 63.2968 16.6376 53.1335 16.1696ZM60.9973 62.0058C57.593 65.41 52.8703 65.1063 41.9443 65.1063C30.6943 65.1063 26.183 65.2728 22.8913 61.9721C19.1 58.1989 19.7863 52.1397 19.7863 42.9531C19.7863 30.5221 18.5105 21.5695 30.9868 20.9305C33.8533 20.8293 34.697 20.7955 41.9128 20.7955L42.014 20.863C54.0043 20.863 63.4115 19.6076 63.9763 32.0813C64.1045 34.9275 64.1338 35.7825 64.1338 42.9869C64.1315 54.1062 64.343 58.6444 60.9973 62.0058Z" fill="#6B9D52"/>
<path d="M56.5 32C58.433 32 60 30.433 60 28.5C60 26.567 58.433 25 56.5 25C54.567 25 53 26.567 53 28.5C53 30.433 54.567 32 56.5 32Z" fill="#6B9D52"/>
</g>
<defs>
<clipPath id="clip0_140_34">
<rect width="54" height="54" fill="white" transform="translate(15 16)"/>
</clipPath>
</defs>
</svg>
