<svg width="23" height="23" viewBox="0 0 23 23" fill="none" xmlns="http://www.w3.org/2000/svg">
<g clip-path="url(#clip0_222_1608)">
<path d="M0.920725 5.93242C0.455478 5.93242 0.078125 5.55507 0.078125 5.08982C0.078125 4.62458 0.455478 4.24722 0.920725 4.24722H5.80008V3.12232C5.80008 2.26109 6.15259 1.47725 6.7191 0.910735C7.28561 0.344223 8.06946 -0.00830078 8.93069 -0.00830078H12.8657C13.7241 -0.00830078 14.507 0.344223 15.0739 0.910735C15.6438 1.47725 15.9963 2.26109 15.9963 3.12232V4.24722H20.8752C21.3404 4.24722 21.7178 4.62458 21.7178 5.08982C21.7178 5.55507 21.3404 5.93242 20.8752 5.93242H18.8566V22.0412C18.8566 22.5065 18.4792 22.8838 18.014 22.8838H3.78098C3.31574 22.8838 2.93838 22.5065 2.93838 22.0412V5.93242H0.920725ZM7.48527 4.24722H14.3111V3.12232C14.3111 2.72586 14.1477 2.36379 13.886 2.10203C13.6257 1.83931 13.2631 1.67691 12.8657 1.67691H8.93069C8.53423 1.67691 8.17216 1.84026 7.9104 2.10203C7.64864 2.36379 7.48527 2.72586 7.48527 3.12232V4.24722ZM8.41243 17.7494C8.41243 18.2146 8.03507 18.592 7.56983 18.592C7.10458 18.592 6.72723 18.2146 6.72723 17.7494V8.80892C6.72723 8.34368 7.10458 7.96632 7.56983 7.96632C8.03507 7.96632 8.41243 8.34368 8.41243 8.80892V17.7494ZM15.0658 17.7494C15.0658 18.2146 14.6885 18.592 14.2232 18.592C13.758 18.592 13.3806 18.2146 13.3806 17.7494V8.80892C13.3806 8.34368 13.758 7.96632 14.2232 7.96632C14.6885 7.96632 15.0658 8.34368 15.0658 8.80892V17.7494ZM17.1714 5.93291H4.62358V21.1986H17.1714V5.93291ZM11.7408 17.7494C11.7408 18.2146 11.3634 18.592 10.8982 18.592C10.433 18.592 10.0556 18.2146 10.0556 17.7494V8.80892C10.0556 8.34368 10.433 7.96632 10.8982 7.96632C11.3634 7.96632 11.7408 8.34368 11.7408 8.80892V17.7494Z" fill="#2B2A29"/>
</g>
<defs>
<clipPath id="clip0_222_1608">
<rect width="23" height="23" fill="white"/>
</clipPath>
</defs>
</svg>
