<svg width="85" height="85" viewBox="0 0 85 85" fill="none" xmlns="http://www.w3.org/2000/svg">
<rect width="85" height="85" rx="20" fill="white"/>
<g clip-path="url(#clip0_140_2)">
<path d="M60.1492 46.2275C59.3085 45.1658 59.549 44.6935 60.1492 43.7445C60.16 43.7337 67.0998 34.144 67.8148 30.8918L67.8192 30.8897C68.1745 29.7045 67.8192 28.8335 66.101 28.8335H60.4157C58.9683 28.8335 58.301 29.581 57.9435 30.4173C57.9435 30.4173 55.0488 37.3463 50.9538 41.8378C49.6322 43.1357 49.0212 43.5517 48.2997 43.5517C47.9443 43.5517 47.3918 43.1357 47.3918 41.9505V30.8897C47.3918 29.4683 46.9867 28.8335 45.7885 28.8335H36.8488C35.941 28.8335 35.4015 29.4965 35.4015 30.114C35.4015 31.4617 37.449 31.7715 37.6613 35.5632V43.79C37.6613 45.5927 37.3342 45.9242 36.6083 45.9242C34.6757 45.9242 29.9848 38.967 27.205 31.0045C26.6438 29.4597 26.0957 28.8357 24.6375 28.8357H18.95C17.3272 28.8357 17 29.5832 17 30.4195C17 31.8972 18.9327 39.2443 25.9873 48.951C30.689 55.5767 37.3103 59.1668 43.3337 59.1668C46.9542 59.1668 47.3962 58.3695 47.3962 56.998C47.3962 50.667 47.069 50.069 48.8825 50.069C49.7232 50.069 51.1705 50.485 54.5505 53.6808C58.4137 57.4703 59.0485 59.1668 61.2108 59.1668H66.8962C68.5168 59.1668 69.338 58.3695 68.8657 56.7965C67.7845 53.488 60.4785 46.6825 60.1492 46.2275Z" fill="#6B9D52"/>
</g>
<defs>
<clipPath id="clip0_140_2">
<rect width="52" height="52" fill="white" transform="translate(17 18)"/>
</clipPath>
</defs>
</svg>
